<?xml version="1.0" encoding="UTF-8"?>
<svg width="600" height="500" viewBox="0 0 600 500" fill="none" xmlns="http://www.w3.org/2000/svg">
    <!-- Background Circle -->
    <circle cx="300" cy="250" r="200" fill="#F0F4FF" fill-opacity="0.5"/>
    
    <!-- Gear 1 -->
    <g transform="translate(200, 150)" class="gear">
        <path d="M50,0 L55,15 L70,20 L55,25 L50,40 L45,25 L30,20 L45,15 Z" fill="#FF5003"/>
        <circle cx="50" cy="20" r="15" fill="#FFE5D9"/>
        <circle cx="50" cy="20" r="5" fill="#FF5003"/>
    </g>
    
    <!-- Gear 2 -->
    <g transform="translate(350, 200)" class="gear">
        <path d="M0,30 L15,25 L20,10 L25,25 L40,30 L25,35 L20,50 L15,35 Z" fill="#003F7D"/>
        <circle cx="20" cy="30" r="15" fill="#E6F0FF"/>
        <circle cx="20" cy="30" r="5" fill="#003F7D"/>
    </g>
    
    <!-- Gear 3 -->
    <g transform="translate(250, 300)" class="gear">
        <path d="M0,20 L15,25 L20,10 L25,25 L40,20 L35,35 L20,40 L5,35 Z" fill="#FF8E00"/>
        <circle cx="20" cy="25" r="15" fill="#FFE5D9"/>
        <circle cx="20" cy="25" r="5" fill="#FF8E00"/>
    </g>
    
    <!-- Industrial Building -->
    <g transform="translate(150, 100)">
        <rect x="100" y="150" width="200" height="150" fill="#E6F0FF" stroke="#003F7D" stroke-width="2"/>
        <rect x="175" y="100" width="50" height="50" fill="#E6F0FF" stroke="#003F7D" stroke-width="2"/>
        <line x1="200" y1="150" x2="200" y2="100" stroke="#003F7D" stroke-width="2"/>
        <rect x="130" y="180" width="30" height="40" fill="#003F7D" opacity="0.7"/>
        <rect x="240" y="180" width="30" height="40" fill="#003F7D" opacity="0.7"/>
        <rect x="130" y="240" width="30" height="60" fill="#FF5003" opacity="0.7"/>
        <rect x="190" y="220" width="30" height="80" fill="#FF8E00" opacity="0.7"/>
        <rect x="250" y="240" width="30" height="60" fill="#FF5003" opacity="0.7"/>
    </g>
    
    <!-- Circuit Board Lines -->
    <path d="M100 200 Q200 150 300 200 T500 150" stroke="#003F7D" stroke-width="2" fill="none" stroke-dasharray="5,5"/>
    <path d="M100 250 Q200 300 300 250 T500 300" stroke="#FF5003" stroke-width="2" fill="none" stroke-dasharray="5,5"/>
    
    <!-- Animated Dots -->
    <circle cx="100" cy="200" r="3" fill="#003F7D" class="pulse">
        <animate attributeName="r" values="3;5;3" dur="2s" repeatCount="indefinite"/>
    </circle>
    <circle cx="500" cy="150" r="3" fill="#003F7D" class="pulse">
        <animate attributeName="r" values="3;5;3" dur="2s" repeatCount="indefinite" begin="0.5s"/>
    </circle>
    <circle cx="100" cy="250" r="3" fill="#FF5003" class="pulse">
        <animate attributeName="r" values="3;5;3" dur="2s" repeatCount="indefinite" begin="0.3s"/>
    </circle>
    <circle cx="500" cy="300" r="3" fill="#FF5003" class="pulse">
        <animate attributeName="r" values="3;5;3" dur="2s" repeatCount="indefinite" begin="0.8s"/>
    </circle>
    
    <!-- Rotating Gears Animation -->
    <style>
        .gear {
            transform-origin: center;
            animation: rotate 20s linear infinite;
        }
        @keyframes rotate {
            100% { transform: rotate(360deg); }
        }
        .gear:nth-child(2) {
            animation-direction: reverse;
            animation-duration: 25s;
        }
        .gear:nth-child(3) {
            animation-duration: 30s;
        }
        .pulse {
            opacity: 0.8;
        }
    </style>
</svg>
